<svg xmlns="http://www.w3.org/2000/svg" xmlns:xlink="http://www.w3.org/1999/xlink" width="2000" zoomAndPan="magnify" viewBox="0 0 1500 1499.999933" height="2000" preserveAspectRatio="xMidYMid meet" version="1.0"><defs><g/><clipPath id="f44f0bdd7c"><path d="M 0.882812 0.882812 L 1393.117188 0.882812 L 1393.117188 1393.117188 L 0.882812 1393.117188 Z M 0.882812 0.882812 " clip-rule="nonzero"/></clipPath><clipPath id="40d877cd32"><path d="M 151.664062 0.882812 L 1242.335938 0.882812 C 1282.324219 0.882812 1320.675781 16.769531 1348.953125 45.046875 C 1377.230469 73.324219 1393.117188 111.675781 1393.117188 151.664062 L 1393.117188 1242.335938 C 1393.117188 1282.324219 1377.230469 1320.675781 1348.953125 1348.953125 C 1320.675781 1377.230469 1282.324219 1393.117188 1242.335938 1393.117188 L 151.664062 1393.117188 C 111.675781 1393.117188 73.324219 1377.230469 45.046875 1348.953125 C 16.769531 1320.675781 0.882812 1282.324219 0.882812 1242.335938 L 0.882812 151.664062 C 0.882812 111.675781 16.769531 73.324219 45.046875 45.046875 C 73.324219 16.769531 111.675781 0.882812 151.664062 0.882812 Z M 151.664062 0.882812 " clip-rule="nonzero"/></clipPath><clipPath id="bee832605a"><path d="M 0.882812 0.882812 L 1393.117188 0.882812 L 1393.117188 1393.117188 L 0.882812 1393.117188 Z M 0.882812 0.882812 " clip-rule="nonzero"/></clipPath><clipPath id="fba8362873"><path d="M 151.664062 0.882812 L 1242.335938 0.882812 C 1282.324219 0.882812 1320.675781 16.769531 1348.953125 45.046875 C 1377.230469 73.324219 1393.117188 111.675781 1393.117188 151.664062 L 1393.117188 1242.335938 C 1393.117188 1282.324219 1377.230469 1320.675781 1348.953125 1348.953125 C 1320.675781 1377.230469 1282.324219 1393.117188 1242.335938 1393.117188 L 151.664062 1393.117188 C 111.675781 1393.117188 73.324219 1377.230469 45.046875 1348.953125 C 16.769531 1320.675781 0.882812 1282.324219 0.882812 1242.335938 L 0.882812 151.664062 C 0.882812 111.675781 16.769531 73.324219 45.046875 45.046875 C 73.324219 16.769531 111.675781 0.882812 151.664062 0.882812 Z M 151.664062 0.882812 " clip-rule="nonzero"/></clipPath><clipPath id="4bb16785bc"><rect x="0" width="1394" y="0" height="1394"/></clipPath><clipPath id="c70a77aed0"><rect x="0" width="798" y="0" height="1254"/></clipPath><clipPath id="3efa998613"><rect x="0" width="513" y="0" height="1254"/></clipPath><clipPath id="b506648182"><rect x="0" width="1394" y="0" height="1394"/></clipPath></defs><g transform="matrix(1, 0, 0, 1, 53, 53)"><g clip-path="url(#b506648182)"><g clip-path="url(#f44f0bdd7c)"><g clip-path="url(#40d877cd32)"><g transform="matrix(1, 0, 0, 1, 0, 0.000000000000113687)"><g clip-path="url(#4bb16785bc)"><g clip-path="url(#bee832605a)"><g clip-path="url(#fba8362873)"><path fill="#d29454" d="M 0.882812 0.882812 L 1393.117188 0.882812 L 1393.117188 1393.117188 L 0.882812 1393.117188 Z M 0.882812 0.882812 " fill-opacity="1" fill-rule="nonzero"/></g></g></g></g></g></g><g transform="matrix(1, 0, 0, 1, 523, 70)"><g clip-path="url(#c70a77aed0)"><g fill="#ffffff" fill-opacity="1"><g transform="translate(1.02139, 1001.732835)"><g><path d="M 654.453125 1.25 L 519.3125 -315.34375 L 212.734375 -315.34375 L 72.578125 1.25 L 43.796875 1.25 L 400.4375 -800.859375 L 407.953125 -800.859375 L 750.8125 1.25 Z M 222.75 -335.375 L 510.5625 -335.375 L 369.15625 -665.71875 Z M 222.75 -335.375 "/></g></g></g></g></g><g transform="matrix(1, 0, 0, 1, 115, 70)"><g clip-path="url(#3efa998613)"><g fill="#ffffff" fill-opacity="1"><g transform="translate(0.871865, 1001.732835)"><g><path d="M 150.171875 -20.015625 L 463.015625 -20.015625 L 463.015625 1.25 L 60.0625 1.25 L 60.0625 -785.84375 L 150.171875 -785.84375 Z M 150.171875 -20.015625 "/></g></g></g></g></g></g></g></svg>